<?xml version="1.0" standalone="no"?>
<!DOCTYPE svg PUBLIC "-//W3C//DTD SVG 20010904//EN"
 "http://www.w3.org/TR/2001/REC-SVG-20010904/DTD/svg10.dtd">
<svg version="1.0" xmlns="http://www.w3.org/2000/svg"
 width="512.000000pt" height="512.000000pt" viewBox="0 0 512.000000 512.000000"
 preserveAspectRatio="xMidYMid meet">
<metadata>
Created by potrace 1.16, written by Peter Selinger 2001-2019
</metadata>
<g transform="translate(0.000000,512.000000) scale(0.100000,-0.100000)"
fill="#000000" stroke="none">
<path d="M2400 4238 c-217 -218 -366 -396 -347 -414 28 -29 170 95 217 189 22
44 43 69 73 89 90 58 109 75 157 135 64 81 118 96 139 41 11 -29 56 -71 98
-92 40 -20 53 -20 53 0 0 20 -193 214 -213 214 -9 0 -88 -73 -177 -162z"/>
<path d="M1831 3643 c-145 -145 -251 -265 -251 -284 0 -59 251 167 393 354 40
52 46 77 22 77 -9 0 -82 -66 -164 -147z"/>
<path d="M1263 3073 c-327 -324 -372 -380 -327 -397 12 -5 87 65 281 261 146
148 282 291 303 318 40 53 52 85 34 92 -6 2 -137 -121 -291 -274z"/>
<path d="M2285 3014 c-114 -17 -267 -51 -400 -89 -221 -65 -221 -65 -190 -125
20 -39 67 -70 105 -70 17 0 84 16 148 36 64 19 138 38 164 41 45 5 48 4 58
-21 13 -35 13 -152 0 -176 -5 -10 -23 -21 -39 -25 -74 -16 -77 -75 -6 -145 52
-51 71 -101 80 -210 22 -268 42 -330 104 -330 57 0 68 53 25 126 -32 54 -46
155 -37 266 l6 76 106 -81 c345 -263 666 -413 1009 -471 110 -19 102 -19 102
-3 0 7 -45 27 -101 46 -171 58 -438 196 -671 347 -118 76 -225 159 -239 186
-14 26 -2 35 126 97 151 74 303 213 321 293 20 92 -60 169 -221 214 -44 12
-109 17 -240 19 -99 2 -193 1 -210 -1z m450 -119 c62 -17 105 -47 105 -74 0
-31 -71 -122 -143 -181 -81 -68 -213 -139 -273 -147 -48 -6 -95 15 -120 52
-28 43 -15 157 29 248 48 103 73 114 242 116 62 1 124 -5 160 -14z"/>
<path d="M773 2581 c-53 -44 -144 -141 -151 -161 -6 -15 285 -317 833 -865
751 -750 1114 -1105 1130 -1105 22 0 360 328 935 907 671 675 930 944 930 964
0 48 -199 -138 -931 -870 -334 -333 -632 -625 -662 -648 -31 -23 -65 -60 -76
-81 -24 -47 -69 -88 -146 -132 l-57 -33 -337 334 c-185 184 -579 576 -876 871
-297 295 -568 562 -602 593 l-62 58 74 79 c80 87 108 138 75 138 -10 0 -45
-22 -77 -49z"/>
</g>
</svg>
